<?xml version="1.0" standalone="no"?>
<!DOCTYPE svg PUBLIC "-//W3C//DTD SVG 20010904//EN"
 "http://www.w3.org/TR/2001/REC-SVG-20010904/DTD/svg10.dtd">
<svg version="1.0" xmlns="http://www.w3.org/2000/svg"
 width="643.000000pt" height="643.000000pt" viewBox="0 0 643.000000 643.000000"
 preserveAspectRatio="xMidYMid meet">
<metadata>
Created by potrace 1.11, written by Peter Selinger 2001-2013
</metadata>
<g transform="translate(0.000000,643.000000) scale(0.100000,-0.100000)"
fill="#000000" stroke="none">
<path d="M2857 5359 c-248 -28 -485 -112 -637 -225 l-65 -48 52 -12 c91 -20
92 -22 37 -51 -133 -71 -274 -226 -318 -351 -46 -129 -65 -402 -37 -527 16
-72 49 -149 89 -207 l29 -43 13 -260 c7 -143 16 -361 19 -485 l6 -225 8 130
c16 269 18 285 36 285 32 0 49 -25 71 -105 34 -129 74 -201 154 -281 95 -94
188 -134 314 -134 176 1 322 93 397 253 46 97 73 203 57 228 -17 27 -15 53 6
72 24 22 178 24 206 4 21 -16 25 -65 5 -77 -20 -13 14 -144 62 -240 67 -133
172 -210 320 -233 255 -39 462 123 526 411 19 89 25 96 84 107 45 8 39 27 75
-257 l29 -223 12 180 c22 340 58 666 99 894 32 178 30 271 -8 346 -22 44 -24
58 -17 105 13 91 10 203 -6 259 -22 72 -83 134 -154 155 -30 9 -64 16 -75 16
-16 0 -25 12 -39 49 -38 107 -152 225 -300 309 -150 86 -392 158 -609 181
-110 12 -339 12 -441 0z m779 -918 c144 -22 312 -58 422 -90 l71 -22 20 -67
c56 -186 161 -697 161 -780 0 -24 -1 -25 -55 -18 -30 3 -99 24 -154 46 -144
58 -211 73 -326 74 -132 0 -222 -23 -329 -84 l-84 -49 -58 16 c-75 20 -153 20
-229 0 l-60 -16 -66 40 c-83 50 -158 76 -257 90 -135 19 -256 0 -437 -70 -55
-21 -118 -42 -139 -46 l-39 -6 7 128 c11 199 16 231 35 226 13 -3 26 28 69
161 l52 166 73 51 c88 62 284 159 391 194 96 31 243 61 357 74 124 14 423 5
575 -18z m-911 -902 c78 -14 166 -60 215 -111 101 -104 88 -320 -27 -448 -56
-62 -118 -95 -208 -111 -90 -15 -163 -7 -239 29 -78 37 -134 86 -168 149 -128
235 -32 451 217 492 73 13 144 12 210 0z m1203 -14 c86 -25 162 -93 193 -173
51 -137 -19 -336 -149 -422 -26 -17 -78 -40 -117 -52 -63 -19 -78 -20 -156
-11 -107 14 -171 45 -232 113 -66 74 -90 143 -91 260 -1 80 3 102 21 137 23
43 85 99 140 127 94 48 265 57 391 21z"/>
<path d="M2068 2968 c-17 -29 -17 -282 0 -383 6 -38 16 -162 22 -275 13 -248
24 -348 56 -504 71 -338 191 -521 409 -626 172 -83 300 -104 615 -103 568 2
798 73 935 287 107 167 180 493 215 956 6 80 18 197 27 260 20 147 22 335 4
378 -15 37 -22 39 -43 15 -23 -26 -43 -96 -88 -308 -32 -144 -51 -210 -80
-271 -67 -140 -187 -240 -262 -220 -12 3 -63 38 -113 77 -177 141 -327 229
-387 229 -30 0 -46 -8 -127 -62 -39 -26 -62 -22 -121 22 -83 62 -125 55 -292
-52 -46 -29 -127 -88 -181 -131 -62 -49 -111 -81 -131 -84 -46 -7 -102 24
-164 92 -78 85 -117 174 -157 360 -60 275 -84 353 -112 362 -6 2 -18 -6 -25
-19z m1359 -824 c92 -49 143 -88 143 -112 0 -57 -103 -123 -220 -142 -258 -40
-524 43 -496 155 7 26 31 44 141 102 l80 42 132 1 131 0 89 -46z"/>
</g>
</svg>
