<?xml version="1.0" standalone="no"?>
<!DOCTYPE svg PUBLIC "-//W3C//DTD SVG 20010904//EN"
 "http://www.w3.org/TR/2001/REC-SVG-20010904/DTD/svg10.dtd">
<svg version="1.0" xmlns="http://www.w3.org/2000/svg"
 width="800.000000pt" height="800.000000pt" viewBox="0 0 800.000000 800.000000"
 preserveAspectRatio="xMidYMid meet">
<metadata>
Created by potrace 1.11, written by Peter Selinger 2001-2013
</metadata>
<g transform="translate(0.000000,800.000000) scale(0.100000,-0.100000)"
fill="#000000" stroke="none">
<path d="M3520 6665 c-231 -32 -424 -90 -600 -181 -103 -53 -240 -147 -240
-165 0 -5 13 -9 30 -9 42 0 130 -20 130 -30 0 -5 -9 -11 -20 -15 -38 -12 -166
-103 -219 -156 -64 -63 -129 -149 -176 -233 -24 -44 -42 -98 -61 -191 -25
-115 -28 -151 -28 -310 0 -152 4 -192 22 -257 23 -85 59 -161 107 -228 l32
-45 8 -180 c4 -99 12 -252 16 -340 5 -88 13 -251 17 -363 5 -111 12 -205 15
-209 4 -3 7 23 7 59 0 36 3 126 7 201 5 122 8 137 24 137 22 0 59 -46 59 -72
0 -34 59 -198 98 -272 46 -89 165 -210 242 -248 160 -79 380 -78 540 2 150 75
259 242 304 464 12 56 11 63 -7 88 -17 23 -18 31 -8 57 19 46 101 67 208 54
94 -11 141 -76 86 -120 -13 -10 -13 -20 -3 -70 71 -348 271 -532 577 -533 168
0 277 44 389 157 102 103 175 257 199 418 8 52 41 85 85 85 31 0 25 30 55
-288 l16 -162 -37 -143 c-53 -205 -106 -349 -173 -467 -11 -19 -38 -73 -60
-120 -91 -195 -255 -325 -348 -276 -15 8 -77 53 -138 101 -138 108 -253 185
-352 237 -104 54 -145 51 -233 -15 -82 -62 -108 -62 -185 -2 -61 47 -104 61
-158 51 -71 -13 -307 -164 -477 -305 -98 -82 -128 -92 -204 -67 -70 22 -116
52 -188 121 -147 144 -214 311 -278 696 -17 101 -34 193 -37 204 -6 17 -8 16
-14 -10 -16 -72 -6 -279 26 -515 8 -58 19 -208 25 -335 18 -401 74 -730 161
-942 136 -333 375 -512 763 -573 281 -44 908 -22 1152 40 171 44 313 128 399
237 159 202 261 617 310 1258 8 116 22 255 31 310 19 129 21 147 33 415 10
226 28 403 56 580 9 52 29 192 46 310 17 118 46 297 65 399 19 102 34 206 34
233 0 65 -18 143 -47 206 -25 53 -25 54 -13 185 22 253 -26 376 -175 443 -27
12 -73 25 -100 29 -50 6 -51 7 -68 54 -9 26 -35 76 -58 111 -164 253 -550 441
-1042 505 -145 19 -491 19 -627 0z m938 -1130 c167 -21 309 -49 487 -95 222
-57 196 -35 244 -207 70 -252 122 -506 161 -788 6 -44 13 -93 17 -109 l5 -29
-59 5 c-40 4 -99 23 -180 57 -168 71 -269 93 -418 93 -188 0 -327 -40 -461
-132 -51 -36 -51 -36 -197 -4 -85 18 -89 18 -170 0 -146 -32 -136 -33 -229 23
-156 94 -346 134 -536 112 -125 -15 -193 -33 -322 -85 -104 -43 -206 -74 -214
-65 -2 2 2 87 10 189 7 102 13 200 14 218 0 29 2 32 24 26 23 -5 26 1 90 198
l65 204 78 56 c290 206 584 307 1018 352 84 9 455 -3 573 -19z m-1057 -1129
c127 -27 265 -119 310 -208 41 -80 42 -231 3 -350 -38 -115 -139 -223 -250
-266 -249 -98 -529 1 -643 228 -40 81 -65 197 -58 268 12 114 98 237 202 287
103 51 301 69 436 41z m1458 -1 c141 -29 229 -92 283 -203 80 -161 28 -386
-121 -525 -105 -99 -251 -145 -397 -127 -180 22 -299 101 -368 242 -62 129
-73 289 -26 396 40 93 166 185 298 216 76 19 244 19 331 1z m-602 -1736 c177
-92 210 -126 180 -185 -54 -104 -241 -162 -487 -151 -199 9 -342 62 -386 143
-35 65 -3 102 167 190 l103 54 163 0 162 0 98 -51z"/>
</g>
</svg>
