<?xml version="1.0" standalone="no"?>
<!DOCTYPE svg PUBLIC "-//W3C//DTD SVG 20010904//EN"
 "http://www.w3.org/TR/2001/REC-SVG-20010904/DTD/svg10.dtd">
<svg version="1.0" xmlns="http://www.w3.org/2000/svg"
 width="700.000000pt" height="700.000000pt" viewBox="0 0 700.000000 700.000000"
 preserveAspectRatio="xMidYMid meet">
<metadata>
Created by potrace 1.11, written by Peter Selinger 2001-2013
</metadata>
<g transform="translate(0.000000,700.000000) scale(0.100000,-0.100000)"
fill="#000000" stroke="none">
<path d="M3073 6800 c126 -136 241 -329 306 -513 17 -49 31 -94 31 -100 0 -7
-78 65 -172 159 -95 93 -231 223 -301 289 l-128 118 7 -184 c3 -101 2 -194 -3
-206 -7 -20 -19 -11 -133 112 -69 74 -128 135 -132 135 -5 0 -8 -15 -8 -32 0
-26 -36 -550 -41 -593 -1 -8 -107 458 -109 475 0 11 -151 -223 -205 -319 -76
-137 -158 -311 -207 -441 -22 -58 -43 -111 -47 -118 -14 -25 -44 132 -49 256
-5 137 6 230 43 349 13 42 22 79 20 81 -2 2 -39 -32 -82 -75 -167 -166 -261
-364 -294 -621 -26 -212 35 -479 149 -645 l31 -44 -65 -42 c-121 -79 -209
-222 -255 -411 -30 -126 -33 -364 -5 -515 59 -319 164 -607 372 -1015 l94
-185 30 -160 c24 -125 35 -228 50 -475 30 -486 48 -648 96 -894 74 -372 160
-563 334 -737 167 -167 335 -244 653 -297 82 -13 167 -17 437 -16 337 0 524
11 700 40 488 82 691 306 805 890 51 262 68 436 95 944 19 360 21 385 65 620
25 135 47 286 49 335 3 65 17 141 50 271 25 100 68 285 96 410 28 126 54 247
59 269 45 194 121 663 150 932 20 184 46 542 39 548 -2 2 -35 -11 -74 -31
-103 -51 -238 -157 -312 -245 -37 -43 -67 -77 -69 -76 -1 1 7 53 17 115 35
201 88 383 164 561 20 47 34 87 31 89 -10 10 -171 -78 -218 -119 -61 -53 -122
-134 -157 -211 l-27 -61 -6 164 c-9 227 -40 360 -113 485 -39 67 -147 172
-239 233 -151 100 -417 219 -603 270 l-73 20 20 -27 c10 -15 34 -40 51 -57 27
-24 148 -172 194 -235 13 -18 7 -14 -105 71 -158 118 -453 283 -695 387 -115
50 -356 142 -372 142 -2 0 25 -32 61 -70z m795 -1665 c129 -27 381 -123 542
-206 247 -127 357 -264 443 -550 56 -184 158 -662 144 -675 -11 -11 -111 18
-229 66 -167 69 -260 91 -408 97 -209 9 -354 -26 -516 -122 -50 -30 -99 -55
-110 -55 -10 0 -53 9 -94 20 -96 25 -187 25 -285 0 -43 -11 -86 -20 -96 -20
-9 0 -53 22 -96 48 -135 83 -230 115 -398 132 -163 17 -352 -14 -532 -86 -104
-42 -201 -74 -225 -74 -16 0 -17 8 -12 63 28 299 149 569 366 817 283 323 610
485 1023 506 72 4 139 11 150 17 72 37 217 47 333 22z m-973 -1340 c142 -36
263 -123 312 -223 24 -49 28 -72 31 -162 9 -264 -117 -455 -348 -527 -66 -20
-225 -28 -290 -14 -147 32 -295 142 -359 270 -38 75 -71 196 -71 260 1 187
124 341 311 391 117 32 302 34 414 5z m1609 0 c92 -24 141 -49 195 -100 127
-119 160 -277 97 -464 -33 -96 -69 -156 -135 -221 -92 -90 -239 -150 -366
-150 -268 2 -449 132 -521 376 -22 76 -23 219 0 296 37 129 204 249 386 278
77 12 273 4 344 -15z m-879 -210 c49 -20 62 -57 35 -102 -24 -40 -22 -61 17
-193 45 -150 128 -288 221 -363 45 -36 159 -90 225 -106 86 -21 196 -24 286
-7 128 23 200 63 307 170 113 112 158 198 203 386 22 90 37 130 52 143 32 26
56 22 63 -10 11 -57 35 -263 47 -413 l13 -156 -31 -74 c-36 -88 -109 -308
-153 -465 -41 -143 -85 -237 -154 -328 -89 -119 -174 -179 -251 -179 -55 0
-65 6 -194 109 -139 111 -326 236 -426 285 -109 53 -145 50 -246 -20 -96 -68
-124 -69 -206 -7 -68 50 -101 65 -147 65 -73 0 -322 -149 -532 -318 -133 -108
-141 -112 -195 -112 -59 0 -118 31 -184 98 -113 112 -164 212 -239 464 -31
103 -74 238 -95 300 l-39 113 -6 323 c-4 188 -3 322 3 322 17 0 29 -26 51
-110 27 -101 85 -240 129 -309 51 -78 178 -194 256 -231 167 -79 390 -76 568
8 150 71 253 205 320 419 36 113 44 175 23 192 -33 27 -17 87 28 107 43 18
207 18 251 -1z m228 -1745 c143 -78 177 -109 177 -157 0 -112 -174 -190 -447
-200 -263 -10 -471 48 -533 149 -28 46 -25 71 13 110 30 33 219 141 276 159
14 4 109 7 211 6 l185 -2 118 -65z"/>
</g>
</svg>
