<?xml version="1.0" encoding="utf-8"?>
<!-- Generator: Adobe Illustrator 19.0.0, SVG Export Plug-In . SVG Version: 6.00 Build 0)  -->
<svg version="1.1" id="Layer_1" xmlns="http://www.w3.org/2000/svg" xmlns:xlink="http://www.w3.org/1999/xlink" x="0px" y="0px"
	 viewBox="0 0 322.8 447" style="enable-background:new 0 0 322.8 447;" xml:space="preserve">
<style type="text/css">
	.st0{fill-rule:evenodd;clip-rule:evenodd;fill:#FFFFFF;}
</style>
<path id="XMLID_7_" class="st0" d="M290.4,416.1c0.4,3.6-0.9,10.9-14,10.9c-11.1,0-18.2-3.5-22.1-10.5c-8.6-15.5-8.5-36.4-17.8-50.5
	c-3-4.4-11.5-6.9-15.2-6.9c-1.3,0-2.5-0.2-2.5,1c-4.8,14.9-9.7,32.7-20.6,47.7h-1.3c1.2-10,5.7-26,6.8-35.9
	c0.4-4.4-6.3-6.1-10.8-6.1c-1.5,0-3,0-4,1.2c-9.6,10.2-24.7,24.8-45.4,39.8H142c6.2-9,30-42.1,31.4-44.1l40.9-40.9l-41.8-41.7
	l83,0.5l57.9-57.9l-53.3-0.3c6.6-9.5,11.8-19.6,15.7-30.1c0.6-1.6,1.2-3.3,1.7-5c1.1-3.5,2.2-7,3-10.6c1-4.3,1.8-8.6,2.4-13
	c0.9-6.5,1.3-13.1,1.3-19.7c-0.1-11-1.4-22-4.1-32.7c-5.9-23.7-18.2-46.1-36.7-64.7c-23.6-23.6-53.6-37-84.3-40.2
	c-2.2-0.2-4.4-0.4-6.6-0.5c-37.3-2-75.2,11.1-103.5,39.4C20.7,73.9,7.6,111.7,9.6,149.1c0.1,2.2,0.3,4.4,0.5,6.6
	c1.1,11,3.5,21.8,7.3,32.3c6.7,18.9,17.7,36.7,32.9,51.9l123,123c-2.6,1.9-45.5,33-68.9,56.2c-11.4,11.3-8.5,18,11.1,18
	c9.2,0,16.1-2.3,16.1-2.3c7.7-13,35.1-32.9,48.4-45.9h2.3c-5.3,11-10.8,24.1-14.3,35.6C165,435,166.7,441,187,441
	c9.5,0,15.3-2,15.3-2c-0.4-13,13.5-39.1,21.6-51.1h3c-0.1,7-1.8,21.4-0.2,27.4c3,11.2,13.8,21.1,43.3,21.1c30.4,0,38.1-10.6,32-16.6
	C298.5,416.3,290.4,416.1,290.4,416.1z M91.2,199c-31.1-31.1-31.4-81.3-0.7-112c30.7-30.7,80.9-30.4,112,0.7
	c31.1,31.1,31.4,81.3,0.7,112C172.5,230.4,122.3,230.1,91.2,199z"/>
</svg>
