<?xml version="1.0" encoding="utf-8"?>
<!-- Generator: Adobe Illustrator 19.0.0, SVG Export Plug-In . SVG Version: 6.00 Build 0)  -->
<svg version="1.1" id="Layer_1" xmlns="http://www.w3.org/2000/svg" xmlns:xlink="http://www.w3.org/1999/xlink" x="0px" y="0px"
	 viewBox="-158 -41 643 643" style="enable-background:new -158 -41 643 643;" xml:space="preserve">
<style type="text/css">
	.st0{fill:#EC5796;}
	.st1{fill:#F47DB3;}
	.st2{fill:#F9F2EA;}
	.st3{fill:#003F84;}
</style>
<rect id="Rectangle_1_" x="-158" y="-41" class="st0" width="643" height="643"/>
<polygon class="st1" points="485,-41 -158,602 485,602 "/>
<g id="BG">
</g>
<g id="Lice">
	<title>rm new</title>
	<desc>Created with Sketch.</desc>
	<g id="Mask">
	</g>
</g>
<g id="Brada">
</g>
<g id="Kosa">
</g>
<g>
	<g transform="translate(-28.000000, 1.000000)">
		<path id="XMLID_6_" class="st2" d="M306.2,262.3c-4.7-40.9-3-85.5-22.9-102.9c-20.6-17.9-63.1-14-92.4-14
			c-29.8,0-71.6-2.1-92.3,16.3c-19.4,17.3-18.5,59.7-23.2,99.8c-1.4-0.3-2.9-0.5-4.4-0.5c-13.1,0-17.5,11.8-17.5,27.7
			s5.6,40.9,18.7,40.9c1.3,0,3.7,2.4,4.9,2.1C85.4,416.9,131.9,469,190.8,469c59.1,0,107.9-65.7,116-151.2c2,0.7-3.6,11.9-1.4,11.9
			c13.1,0,24.2-25.1,24.2-41c0-16-3.6-27.7-16.7-27.7C310.6,261.1,308.3,261.5,306.2,262.3z"/>
	</g>
</g>
<path id="XMLID_3_" class="st3" d="M279.1,300.6c-0.4-5.6-6.5,34.5-18.8,50.9c-4.8,16.7-22.5,38.4-34.1,28.8
	c-12.6-10.5-27.3-21.5-39.8-27.3s-15.8,6.8-23.1,6.8c-7.3,0-10.5-12.6-23.1-6.8c-12.6,5.7-27.3,16.7-39.8,27.3
	c-11.6,9.6-35.1-11.4-39.9-28.1c-8.9-17.5-11.2-59.1-12.8-52.2c-2.7,2.6-1.9,19.5,2.4,45.4c2.4,14.4-0.9,58.4,13.8,97.8
	c14.7,39.4,47.4,50.2,97.7,49.2c56.2-1.3,85-5.1,98.8-44.2c14-39.6,13.8-88.3,16.1-102.8C280.8,319.5,281.8,303.2,279.1,300.6z
	 M198,400.8c-5.7,8.9-24.1,11-34.6,11s-28.8-2.1-34.6-11c-5.8-8.9,8.4-12.6,15.8-17.2c7.3-4.8,13.6-2.6,18.8-2.6
	c5.3,0,11.5-2.1,18.8,2.6C189.5,388.3,203.8,391.9,198,400.8L198,400.8z"/>
<path class="st3" d="M289.8,166.1c0.6-3.9,1.2-9,1.7-15.7c2.5-35.3-26.5-32.7-26.5-32.7C249.3,58.9,112.4,41.9,57.6,91.3
	c8.4,0.4,14.8,3,14.8,3c-18.9,8.1-30.3,22.8-37.3,36.9c-12.2,45-1.5,67.9,8.4,78.7c-0.3,4.2-0.3,9.2,0.1,15
	c2.6,36.6,3.3,90.7,3.3,90.7s1.7-45,4.1-80.9c0.4-6.3,0.9-12.1,1.4-17.5c2,1.2,3.2,1.6,3.2,1.6l10.7-33
	c61.5-49.6,146.1-32.9,189.2-19.3c3.3,11.2,7.8,26.5,11.2,44c9.2,46.6,12.4,103.1,12.4,103.1s5.5-68.3,15.4-115.9
	C297.5,183.7,294.8,173.5,289.8,166.1z"/>
<g id="Group_1_" transform="translate(50.000000, 178.000000)">
	<g id="XMLID_1_">
		<path id="XMLID_2_" class="st3" d="M156.6,63.5c-16.5,3.1-24.5,12.1-27.4,12.3s-10.4-3.5-17.9-3.5s-15.1,3.6-17.9,3.4
			c-2.9-0.2-11-9.2-27.4-12.3c-16.5-3.1-29.5-0.9-41,2.9S8.1,74.9-5,74.9v11.9c0,0,8.5,0.2,9.3,4c0.7,3.8,4.3,20.6,12.8,31.3
			c8.5,10.5,18.1,17.5,34.2,18.2c17.6,0.7,29.7-6.5,36.2-14c9-10.3,13-26.4,13.9-33.9c0,0-3.9-2-2.4-6.3c1.2-3.5,4.9-4.2,12.5-4.2
			s11.2,0.7,12.5,4.2c1.5,4.4-2.5,6.3-2.5,6.3c0.9,7.5,4.8,23.5,13.8,33.9c6.3,7.4,18.3,14.7,36,14c16.1-0.7,25.2-7.7,33.7-18.2
			s11-27.5,11.8-31.3s7.3-4,7.3-4V74.9c-12.4,0-16.9-4.8-28.4-8.6C184.1,62.5,173,60.6,156.6,63.5z M88.8,116
			c-5.3,11.3-15.4,17.8-25.8,19.3c-9.1,1.4-17,2.2-28.8-4.2c-11.2-6-18-17.5-19.8-31s6-24.3,14.2-28.9c9.2-5.3,27.8-6.7,39.5-3.5
			C80,71,88.6,79,91.1,85.7C93.5,92.4,94.1,104.6,88.8,116L88.8,116z M208.3,100c-1.8,13.5-8.7,24.9-19.8,31
			c-11.9,6.3-19.6,5.6-28.8,4.2c-10.3-1.5-20.4-8-25.8-19.3c-5.3-11.3-4.8-23.5-2.4-30.2s11.1-14.8,23-18
			c11.9-3.3,30.4-1.8,39.5,3.5C202.2,75.7,210.1,86.6,208.3,100L208.3,100z"/>
	</g>
	<polygon id="Path-4_1_" class="st3" points="222.8,75 230.6,74.9 230.5,86.4 223,86.6 	"/>
</g>
<g id="Santa_HAt">
</g>
</svg>
