<?xml version="1.0" encoding="utf-8"?>
<!-- Generator: Adobe Illustrator 19.0.0, SVG Export Plug-In . SVG Version: 6.00 Build 0)  -->
<svg version="1.1" id="Layer_1" xmlns="http://www.w3.org/2000/svg" xmlns:xlink="http://www.w3.org/1999/xlink" x="0px" y="0px"
	 viewBox="24 99.9 643 643" style="enable-background:new 24 99.9 643 643;" xml:space="preserve">
<style type="text/css">
	.st0{fill:#FFFFFF;}
	.st1{fill:#EC5766;}
	.st2{fill:#F9F2EA;}
	.st3{fill:#202C59;}
</style>
<g>
	<rect id="path-1_1_" x="207.3" y="291" class="st0" width="276.3" height="431.5"/>
</g>
<g id="BG">
</g>
<g id="Lice">
	<title>rm new</title>
	<desc>Created with Sketch.</desc>
	<g id="Mask">
	</g>
</g>
<g id="Brada">
</g>
<g id="Kosa">
</g>
<rect id="Rectangle_1_" x="24" y="99.9" class="st1" width="643" height="643"/>
<g>
	<g transform="translate(-28.000000, 1.000000)">
		<path id="XMLID_6_" class="st2" d="M488.2,403.2c-4.7-40.9-3-85.5-22.9-102.9c-20.6-17.9-63.1-14-92.4-14
			c-29.8,0-71.6-2.1-92.3,16.3c-19.4,17.3-18.5,59.7-23.2,99.8c-1.4-0.3-2.9-0.5-4.4-0.5c-13.1,0-17.5,11.8-17.5,27.7
			s5.6,40.9,18.7,40.9c1.3,0,3.7,2.4,4.9,2.1c8.3,85.2,54.8,137.3,113.7,137.3c59.1,0,107.9-65.7,116-151.2c2,0.7-3.6,11.9-1.4,11.9
			c13.1,0,24.2-25.1,24.2-41c0-16-3.6-27.7-16.7-27.7C492.6,402,490.3,402.4,488.2,403.2z"/>
	</g>
</g>
<path id="XMLID_3_" class="st3" d="M461.1,441.5c-0.4-5.6-6.5,34.5-18.8,50.9c-4.8,16.7-22.5,38.4-34.1,28.8
	c-12.6-10.5-27.3-21.5-39.8-27.3s-15.8,6.8-23.1,6.8c-7.3,0-10.5-12.6-23.1-6.8c-12.6,5.7-27.3,16.7-39.8,27.3
	c-11.6,9.6-35.1-11.4-39.9-28.1c-8.9-17.5-11.2-59.1-12.8-52.2c-2.7,2.6-1.9,19.5,2.4,45.4c2.4,14.4-0.9,58.4,13.8,97.8
	s47.4,50.2,97.7,49.2c56.2-1.3,85-5.1,98.8-44.2c14-39.6,13.8-88.3,16.1-102.8C462.8,460.4,463.8,444.1,461.1,441.5z M380,541.7
	c-5.7,8.9-24.1,11-34.6,11s-28.8-2.1-34.6-11c-5.8-8.9,8.4-12.6,15.8-17.2c7.3-4.8,13.6-2.6,18.8-2.6c5.3,0,11.5-2.1,18.8,2.6
	C371.5,529.2,385.8,532.8,380,541.7L380,541.7z"/>
<path class="st3" d="M471.8,307c0.6-3.9,1.2-9,1.7-15.7C476,256,447,258.6,447,258.6c-15.7-58.8-152.6-75.8-207.4-26.4
	c8.4,0.4,14.8,3,14.8,3c-18.9,8.1-30.3,22.8-37.3,36.9c-12.2,45-1.5,67.9,8.4,78.7c-0.3,4.2-0.3,9.2,0.1,15
	c2.6,36.6,3.3,90.7,3.3,90.7s1.7-45,4.1-80.9c0.4-6.3,0.9-12.1,1.4-17.5c2,1.2,3.2,1.6,3.2,1.6l10.7-33
	c61.5-49.6,146.1-32.9,189.2-19.3c3.3,11.2,7.8,26.5,11.2,44c9.2,46.6,12.4,103.1,12.4,103.1s5.5-68.3,15.4-115.9
	C479.5,324.6,476.8,314.4,471.8,307z"/>
<g id="Group_1_" transform="translate(50.000000, 178.000000)">
	<g id="XMLID_1_">
		<path id="XMLID_2_" class="st3" d="M338.6,204.4c-16.5,3.1-24.5,12.1-27.4,12.3c-2.9,0.2-10.4-3.5-17.9-3.5s-15.1,3.6-17.9,3.4
			c-2.9-0.2-11-9.2-27.4-12.3c-16.5-3.1-29.5-0.9-41,2.9s-16.9,8.6-30,8.6v11.9c0,0,8.5,0.2,9.3,4c0.7,3.8,4.3,20.6,12.8,31.3
			c8.5,10.5,18.1,17.5,34.2,18.2c17.6,0.7,29.7-6.5,36.2-14c9-10.3,13-26.4,13.9-33.9c0,0-3.9-2-2.4-6.3c1.2-3.5,4.9-4.2,12.5-4.2
			c7.6,0,11.2,0.7,12.5,4.2c1.5,4.4-2.5,6.3-2.5,6.3c0.9,7.5,4.8,23.5,13.8,33.9c6.3,7.4,18.3,14.7,36,14
			c16.1-0.7,25.2-7.7,33.7-18.2c8.5-10.5,11-27.5,11.8-31.3s7.3-4,7.3-4v-11.9c-12.4,0-16.9-4.8-28.4-8.6
			C366.1,203.4,355,201.5,338.6,204.4z M270.8,256.9c-5.3,11.3-15.4,17.8-25.8,19.3c-9.1,1.4-17,2.2-28.8-4.2
			c-11.2-6-18-17.5-19.8-31s6-24.3,14.2-28.9c9.2-5.3,27.8-6.7,39.5-3.5c11.9,3.3,20.5,11.3,23,18
			C275.5,233.3,276.1,245.5,270.8,256.9L270.8,256.9z M390.3,240.9c-1.8,13.5-8.7,24.9-19.8,31c-11.9,6.3-19.6,5.6-28.8,4.2
			c-10.3-1.5-20.4-8-25.8-19.3c-5.3-11.3-4.8-23.5-2.4-30.2c2.4-6.7,11.1-14.8,23-18c11.9-3.3,30.4-1.8,39.5,3.5
			C384.2,216.6,392.1,227.5,390.3,240.9L390.3,240.9z"/>
	</g>
	<polygon id="Path-4_1_" class="st3" points="404.8,215.9 412.6,215.8 412.5,227.3 405,227.5 	"/>
</g>
<g id="Santa_HAt">
</g>
</svg>
