<?xml version="1.0" encoding="UTF-8"?>
<svg width="498px" height="498px" viewBox="0 0 498 498" version="1.1" xmlns="http://www.w3.org/2000/svg" xmlns:xlink="http://www.w3.org/1999/xlink">
    <!-- Generator: Sketch 39 (31667) - http://www.bohemiancoding.com/sketch -->
    <title>rm new</title>
    <desc>Created with Sketch.</desc>
    <defs>
        <rect id="path-1" x="0" y="0" width="276" height="431"></rect>
    </defs>
    <g id="RM-v2" stroke="none" stroke-width="1" fill="none" fill-rule="evenodd">
        <g id="RM" transform="translate(111.000000, 33.000000)">
            <mask id="mask-2" fill="white">
                <use xlink:href="#path-1"></use>
            </mask>
            <g id="Mask"></g>
            <g mask="url(#mask-2)">
                <g transform="translate(-28.000000, 1.000000)">
                    <path d="M280.6,200.797875 C275.926941,159.955864 277.608052,115.406028 257.731445,98.0537108 C237.200311,80.1299891 194.717308,84.0719506 165.399994,84.0719506 C135.628794,84.0719506 93.8944337,81.9787727 73.2421875,100.372315 C53.8680117,117.627567 54.7951363,160.042406 50.1,200.082989 C48.7,199.776609 47.2,199.572356 45.7,199.572356 C32.6,199.572356 28.171875,211.316911 28.171875,227.248662 C28.171875,243.180412 33.8,268.099309 46.9,268.099309 C48.2,268.099309 50.6,270.448221 51.8,270.243967 C60.1,355.315431 106.5,407.4 165.4,407.4 C224.4,407.4 273.2,341.732592 281.3,256.354749 C283.3,257.069635 277.7,268.201435 279.9,268.201435 C293,268.201435 304.1,243.180417 304.1,227.248666 C304.1,211.316915 300.5,199.572356 287.4,199.572356 C285,199.572356 282.7,199.980862 280.6,200.797875 Z" id="XMLID_12_" fill="#FFF1F1"></path>
                    <path d="M278.858444,238.6146 C272.758444,232.7146 267.458439,272.1146 262.758439,288.8146 C257.958439,305.5146 240.258439,327.2146 228.658439,317.6146 C216.058439,307.1146 201.358439,296.1146 188.858439,290.3146 C176.358439,284.5146 173.058439,297.1146 165.758439,297.1146 C158.458439,297.1146 155.258439,284.5146 142.658439,290.3146 C130.058439,296.0146 115.358439,307.0146 102.858439,317.6146 C91.258439,327.2146 73.558439,305.5146 68.758439,288.8146 C63.958439,272.1146 58.7584389,232.6146 52.6584389,238.6146 C49.9584389,241.2146 48.358439,256.9146 52.658439,282.7146 C55.058439,297.1146 51.758439,341.055133 66.458439,380.355133 C81.158439,419.655133 113.758439,430.455133 164.058439,429.455133 C220.158439,428.155133 248.958439,424.355133 262.758439,385.355133 C276.758439,345.755133 276.558439,297.1146 278.858439,282.7146 C283.258439,256.9146 281.558444,241.2146 278.858444,238.6146 Z M200.558439,338.1146 C194.858439,347.0146 176.458439,349.1146 165.958439,349.1146 C155.458439,349.1146 137.158439,347.0146 131.358439,338.1146 C125.558439,329.2146 139.758439,325.5146 147.158439,320.9146 C154.458439,316.1146 160.758439,318.3146 165.958439,318.3146 C171.258439,318.3146 177.458439,316.2146 184.758439,320.9146 C192.058439,325.6146 206.258439,329.2146 200.558439,338.1146 L200.558439,338.1146 Z" id="XMLID_4_" fill="#2A688F"></path>
                    <path d="M269.161096,148.011693 C278.361527,194.565212 284.596845,253.027379 284.596845,253.027379 C284.596845,253.027379 287.080799,182.712678 296.92679,135.243797 C306.77278,87.7749161 253.293504,84 253.293504,84 C251.058287,85.936659 262.09862,112.276069 269.161096,148.011693 Z" id="Path-2" fill="#2A688F"></path>
                    <path d="M50.2965684,172.242157 C52.7425832,208.054296 54.400297,253.027379 54.400297,253.027379 C54.400297,253.027379 55.0606777,198.936519 57.6783203,162.420221 C60.2959628,125.903923 46.0780307,123 46.0780307,123 C45.4837786,124.48981 48.4189475,144.751879 50.2965684,172.242157 Z" id="Path-2-Copy" fill="#2A688F" transform="translate(52.000000, 188.013690) scale(-1, 1) translate(-52.000000, -188.013690) "></path>
                    <g id="Group-2" stroke-width="1" fill="none" transform="translate(32.000000, 0.000000)">
                        <path d="M36.9583857,123.38503 L26.3046867,156.355469 C26.3046867,156.355469 -17.9357401,140.296322 9.12969881,57.7656621 C36.1951377,-24.7649974 217.267429,-12.774908 235.472562,55.3050594 C235.472562,55.3050594 264.412936,52.7028154 261.837804,87.9747493 C259.262671,123.246683 253.704234,114.293647 253.704234,114.293647 C253.704234,114.293647 122.787286,54.2048716 36.9583857,123.38503 Z" id="Path-3" fill="#2A688F"></path>
                    </g>
                    <g id="Group" stroke-width="1" fill="none" transform="translate(50.000000, 178.000000)">
                        <g id="XMLID_5_" fill="#2A688F">
                            <path d="M158.2,1.7 C142.1,4.7 134.2,13.5 131.4,13.7 C128.6,13.9 121.3,10.4 113.9,10.4 C106.5,10.4 99.1,13.9 96.4,13.7 C93.6,13.5 85.6,4.7 69.6,1.7 C53.5,-1.3 40.7,0.8 29.5,4.5 C18.3,8.2 13,12.9 0.1,12.9 L0.1,24.5 C0.1,24.5 8.4,24.7 9.2,28.4 C9.9,32.1 13.4,48.6 21.7,59 C30,69.3 39.4,76.1 55.2,76.8 C72.4,77.5 84.3,70.4 90.6,63.1 C99.4,53 103.3,37.3 104.2,29.9 C104.2,29.9 100.4,27.9 101.9,23.7 C103.1,20.3 106.7,19.6 114.1,19.6 C121.5,19.6 125.1,20.3 126.3,23.7 C127.8,28 123.9,29.9 123.9,29.9 C124.8,37.2 128.6,52.9 137.4,63.1 C143.6,70.3 155.3,77.5 172.6,76.8 C188.4,76.1 197.3,69.3 205.6,59 C213.9,48.7 216.4,32.1 217.1,28.4 C217.8,24.7 224.2,24.5 224.2,24.5 L224.2,12.9 C212.1,12.9 207.7,8.2 196.4,4.5 C185.2,0.8 174.3,-1.1 158.2,1.7 Z M91.9,53.1 C86.7,64.2 76.8,70.5 66.7,72 C57.8,73.4 50.1,74.2 38.5,67.9 C27.5,62 20.9,50.8 19.1,37.6 C17.3,24.4 25,13.8 33,9.3 C42,4.1 60.2,2.7 71.7,5.9 C83.3,9.1 91.8,17 94.2,23.5 C96.5,30 97.1,42 91.9,53.1 L91.9,53.1 Z M208.8,37.5 C207,50.7 200.3,61.9 189.4,67.8 C177.8,74 170.2,73.3 161.2,71.9 C151.1,70.4 141.2,64.1 136,53 C130.8,41.9 131.3,30 133.7,23.4 C136,16.8 144.6,8.9 156.2,5.8 C167.8,2.6 185.9,4 194.9,9.2 C202.9,13.7 210.6,24.3 208.8,37.5 L208.8,37.5 Z" id="XMLID_7_"></path>
                        </g>
                        <polygon id="Path-4" fill="#2A688F" points="222.930176 12.9604492 230.659668 12.9038086 230.538086 24.1030273 223.260742 24.3574219"></polygon>
                    </g>
                    <path d="M9.7581624,89.987545 C9.7581624,89.987545 38.7482707,44.2129806 85.8566715,48.2273597 C85.8566715,48.2273597 64.5898373,22.3139474 39.0339289,39.3760828 C13.4780205,56.4382183 9.7581624,89.987545 9.7581624,89.987545 Z" id="Path-5" fill="#FFFFFF" transform="translate(47.807417, 61.774066) rotate(-388.000000) translate(-47.807417, -61.774066) "></path>
                </g>
            </g>
        </g>
    </g>
</svg>